<svg xmlns="http://www.w3.org/2000/svg" viewBox="0 0 900 1100"><defs><radialGradient id="sky"><stop stop-color="#253f52"/><stop offset="1" stop-color="#101d2b"/></radialGradient><radialGradient id="point"><stop stop-color="#fffde4"/><stop offset=".12" stop-color="#ffe7b7"/><stop offset=".25" stop-color="#d4c39e" stop-opacity=".15"/><stop offset="1" stop-color="#d4c39e" stop-opacity="0"/></radialGradient></defs><path fill="url(#sky)" d="M0 0h900v1100H0z"/><g fill="#e6dfc2"><circle cx="173" cy="201" r="1.5"/><circle cx="760" cy="292" r="2"/><circle cx="80" cy="442" r="1"/><circle cx="248" cy="670" r="1.6"/><circle cx="680" cy="109" r="1"/><circle cx="702" cy="812" r="1.2"/><circle cx="300" cy="298" r="1"/><circle cx="543" cy="180" r="1.3"/><circle cx="851" cy="561" r="1"/><circle cx="593" cy="632" r="1.6"/><circle cx="448" cy="773" r="1"/></g><circle cx="481" cy="421" r="90" fill="url(#point)"/><circle cx="481" cy="421" r="5" fill="#fff8d4"/><path d="M0 1013 70 995 129 1030 220 970 265 1015 331 980 402 1020 477 964 531 1009 612 974 685 1015 756 973 832 1000 900 978v122H0Z" fill="#0b1822"/><text x="450" y="1074" text-anchor="middle" font-family="sans-serif" font-size="13" letter-spacing="4" fill="#94a1a5">CELESTIAL · ILLUSTRATED PRACTICE SKY</text></svg>
